# Blender 4.5.3 LTS
# www.blender.org
mtllib Kiiro.mtl
o 平面
v -0.500000 -0.000000 0.500000
v 0.500000 -0.000000 0.500000
v -0.500000 0.000000 -0.500000
v 0.500000 0.000000 -0.500000
v -0.000000 1.450000 0.250000
v 0.195458 1.450000 0.155872
v 0.243732 1.450000 -0.055630
v 0.108471 1.450000 -0.225242
v -0.108471 1.450000 -0.225242
v -0.243732 1.450000 -0.055630
v -0.195458 1.450000 0.155872
v 0.000000 0.950000 -0.000000
v -1.500000 -0.000000 0.500000
v -0.500000 -0.000000 0.500000
v -1.500000 0.000000 -0.500000
v -0.500000 0.000000 -0.500000
v -1.000000 1.450000 0.250000
v -0.804542 1.450000 0.155872
v -0.756268 1.450000 -0.055630
v -0.891529 1.450000 -0.225242
v -1.108471 1.450000 -0.225242
v -1.243732 1.450000 -0.055630
v -1.195458 1.450000 0.155872
v -1.000000 0.950000 -0.000000
v 0.500000 -0.000000 0.500000
v 1.500000 -0.000000 0.500000
v 0.500000 0.000000 -0.500000
v 1.500000 0.000000 -0.500000
v 1.000000 1.450000 0.250000
v 1.195458 1.450000 0.155872
v 1.243732 1.450000 -0.055630
v 1.108471 1.450000 -0.225242
v 0.891529 1.450000 -0.225242
v 0.756268 1.450000 -0.055630
v 0.804542 1.450000 0.155872
v 1.000000 0.950000 -0.000000
v -1.500000 -0.000000 1.500000
v -0.500000 -0.000000 1.500000
v -1.500000 0.000000 0.500000
v -0.500000 0.000000 0.500000
v -1.000000 1.450000 1.250000
v -0.804542 1.450000 1.155872
v -0.756268 1.450000 0.944370
v -0.891529 1.450000 0.774758
v -1.108471 1.450000 0.774758
v -1.243732 1.450000 0.944370
v -1.195458 1.450000 1.155872
v -1.000000 0.950000 1.000000
v -1.500000 -0.000000 -0.500000
v -0.500000 -0.000000 -0.500000
v -1.500000 0.000000 -1.500000
v -0.500000 0.000000 -1.500000
v -1.000000 1.450000 -0.750000
v -0.804542 1.450000 -0.844128
v -0.756268 1.450000 -1.055630
v -0.891529 1.450000 -1.225242
v -1.108471 1.450000 -1.225242
v -1.243732 1.450000 -1.055630
v -1.195458 1.450000 -0.844128
v -1.000000 0.950000 -1.000000
v -0.500000 -0.000000 1.500000
v 0.500000 -0.000000 1.500000
v -0.500000 0.000000 0.500000
v 0.500000 0.000000 0.500000
v -0.000000 1.450000 1.250000
v 0.195458 1.450000 1.155872
v 0.243732 1.450000 0.944370
v 0.108471 1.450000 0.774758
v -0.108471 1.450000 0.774758
v -0.243732 1.450000 0.944370
v -0.195458 1.450000 1.155872
v 0.000000 0.950000 1.000000
v -0.500000 -0.000000 -0.500000
v 0.500000 -0.000000 -0.500000
v -0.500000 0.000000 -1.500000
v 0.500000 0.000000 -1.500000
v -0.000000 1.450000 -0.750000
v 0.195458 1.450000 -0.844128
v 0.243732 1.450000 -1.055630
v 0.108471 1.450000 -1.225242
v -0.108471 1.450000 -1.225242
v -0.243732 1.450000 -1.055630
v -0.195458 1.450000 -0.844128
v 0.000000 0.950000 -1.000000
v 0.500000 -0.000000 1.500000
v 1.500000 -0.000000 1.500000
v 0.500000 0.000000 0.500000
v 1.500000 0.000000 0.500000
v 1.000000 1.450000 1.250000
v 1.195458 1.450000 1.155872
v 1.243732 1.450000 0.944370
v 1.108471 1.450000 0.774758
v 0.891529 1.450000 0.774758
v 0.756268 1.450000 0.944370
v 0.804542 1.450000 1.155872
v 1.000000 0.950000 1.000000
v 0.500000 -0.000000 -0.500000
v 1.500000 -0.000000 -0.500000
v 0.500000 0.000000 -1.500000
v 1.500000 0.000000 -1.500000
v 1.000000 1.450000 -0.750000
v 1.195458 1.450000 -0.844128
v 1.243732 1.450000 -1.055630
v 1.108471 1.450000 -1.225242
v 0.891529 1.450000 -1.225242
v 0.756268 1.450000 -1.055630
v 0.804542 1.450000 -0.844128
v 1.000000 0.950000 -1.000000
vn -0.0000 1.0000 -0.0000
vn 0.3956 -0.4107 0.8215
vn 0.8889 -0.4107 0.2029
vn 0.7128 -0.4107 -0.5685
vn -0.0000 -0.4107 -0.9118
vn -0.7128 -0.4107 -0.5685
vn -0.8889 -0.4107 0.2029
vn -0.3956 -0.4107 0.8215
vt 1.000000 0.000000
vt 0.000000 1.000000
vt 0.000000 0.000000
vt 1.000000 1.000000
s 1
f 2/1/1 3/2/1 1/3/1
f 2/1/1 4/4/1 3/2/1
s 0
f 5/3/2 12/3/2 6/3/2
f 6/3/3 12/3/3 7/3/3
f 7/3/4 12/3/4 8/3/4
f 8/3/5 12/3/5 9/3/5
f 9/3/6 12/3/6 10/3/6
f 6/3/1 8/3/1 10/3/1
f 10/3/7 12/3/7 11/3/7
f 11/3/8 12/3/8 5/3/8
s 1
f 14/1/1 15/2/1 13/3/1
f 14/1/1 16/4/1 15/2/1
s 0
f 17/3/2 24/3/2 18/3/2
f 18/3/3 24/3/3 19/3/3
f 19/3/4 24/3/4 20/3/4
f 20/3/5 24/3/5 21/3/5
f 21/3/6 24/3/6 22/3/6
f 18/3/1 20/3/1 22/3/1
f 22/3/7 24/3/7 23/3/7
f 23/3/8 24/3/8 17/3/8
s 1
f 26/1/1 27/2/1 25/3/1
f 26/1/1 28/4/1 27/2/1
s 0
f 29/3/2 36/3/2 30/3/2
f 30/3/3 36/3/3 31/3/3
f 31/3/4 36/3/4 32/3/4
f 32/3/5 36/3/5 33/3/5
f 33/3/6 36/3/6 34/3/6
f 30/3/1 32/3/1 34/3/1
f 34/3/7 36/3/7 35/3/7
f 35/3/8 36/3/8 29/3/8
s 1
f 38/1/1 39/2/1 37/3/1
f 38/1/1 40/4/1 39/2/1
s 0
f 41/3/2 48/3/2 42/3/2
f 42/3/3 48/3/3 43/3/3
f 43/3/4 48/3/4 44/3/4
f 44/3/5 48/3/5 45/3/5
f 45/3/6 48/3/6 46/3/6
f 42/3/1 44/3/1 46/3/1
f 46/3/7 48/3/7 47/3/7
f 47/3/8 48/3/8 41/3/8
s 1
f 50/1/1 51/2/1 49/3/1
f 50/1/1 52/4/1 51/2/1
s 0
f 53/3/2 60/3/2 54/3/2
f 54/3/3 60/3/3 55/3/3
f 55/3/4 60/3/4 56/3/4
f 56/3/5 60/3/5 57/3/5
f 57/3/6 60/3/6 58/3/6
f 54/3/1 56/3/1 58/3/1
f 58/3/7 60/3/7 59/3/7
f 59/3/8 60/3/8 53/3/8
s 1
f 62/1/1 63/2/1 61/3/1
f 62/1/1 64/4/1 63/2/1
s 0
f 65/3/2 72/3/2 66/3/2
f 66/3/3 72/3/3 67/3/3
f 67/3/4 72/3/4 68/3/4
f 68/3/5 72/3/5 69/3/5
f 69/3/6 72/3/6 70/3/6
f 66/3/1 68/3/1 70/3/1
f 70/3/7 72/3/7 71/3/7
f 71/3/8 72/3/8 65/3/8
s 1
f 74/1/1 75/2/1 73/3/1
f 74/1/1 76/4/1 75/2/1
s 0
f 77/3/2 84/3/2 78/3/2
f 78/3/3 84/3/3 79/3/3
f 79/3/4 84/3/4 80/3/4
f 80/3/5 84/3/5 81/3/5
f 81/3/6 84/3/6 82/3/6
f 78/3/1 80/3/1 82/3/1
f 82/3/7 84/3/7 83/3/7
f 83/3/8 84/3/8 77/3/8
s 1
f 86/1/1 87/2/1 85/3/1
f 86/1/1 88/4/1 87/2/1
s 0
f 89/3/2 96/3/2 90/3/2
f 90/3/3 96/3/3 91/3/3
f 91/3/4 96/3/4 92/3/4
f 92/3/5 96/3/5 93/3/5
f 93/3/6 96/3/6 94/3/6
f 90/3/1 92/3/1 94/3/1
f 94/3/7 96/3/7 95/3/7
f 95/3/8 96/3/8 89/3/8
s 1
f 98/1/1 99/2/1 97/3/1
f 98/1/1 100/4/1 99/2/1
s 0
f 101/3/2 108/3/2 102/3/2
f 102/3/3 108/3/3 103/3/3
f 103/3/4 108/3/4 104/3/4
f 104/3/5 108/3/5 105/3/5
f 105/3/6 108/3/6 106/3/6
f 102/3/1 104/3/1 106/3/1
f 106/3/7 108/3/7 107/3/7
f 107/3/8 108/3/8 101/3/8
f 11/3/1 5/3/1 6/3/1
f 6/3/1 7/3/1 8/3/1
f 8/3/1 9/3/1 10/3/1
f 10/3/1 11/3/1 6/3/1
f 23/3/1 17/3/1 18/3/1
f 18/3/1 19/3/1 20/3/1
f 20/3/1 21/3/1 22/3/1
f 22/3/1 23/3/1 18/3/1
f 35/3/1 29/3/1 30/3/1
f 30/3/1 31/3/1 32/3/1
f 32/3/1 33/3/1 34/3/1
f 34/3/1 35/3/1 30/3/1
f 47/3/1 41/3/1 42/3/1
f 42/3/1 43/3/1 44/3/1
f 44/3/1 45/3/1 46/3/1
f 46/3/1 47/3/1 42/3/1
f 59/3/1 53/3/1 54/3/1
f 54/3/1 55/3/1 56/3/1
f 56/3/1 57/3/1 58/3/1
f 58/3/1 59/3/1 54/3/1
f 71/3/1 65/3/1 66/3/1
f 66/3/1 67/3/1 68/3/1
f 68/3/1 69/3/1 70/3/1
f 70/3/1 71/3/1 66/3/1
f 83/3/1 77/3/1 78/3/1
f 78/3/1 79/3/1 80/3/1
f 80/3/1 81/3/1 82/3/1
f 82/3/1 83/3/1 78/3/1
f 95/3/1 89/3/1 90/3/1
f 90/3/1 91/3/1 92/3/1
f 92/3/1 93/3/1 94/3/1
f 94/3/1 95/3/1 90/3/1
f 107/3/1 101/3/1 102/3/1
f 102/3/1 103/3/1 104/3/1
f 104/3/1 105/3/1 106/3/1
f 106/3/1 107/3/1 102/3/1
