# Blender 4.4.1
# www.blender.org
mtllib Player_Hand_R.mtl
o P_Hand_R
v -0.165560 -0.325528 0.162764
v -0.078661 0.000000 0.075537
v -0.078661 0.000000 -0.075537
v 0.073069 0.000000 0.075537
v 0.159968 -0.325528 -0.162764
v 0.073069 0.000000 -0.075537
v -0.165560 0.000000 0.162764
v -0.165560 0.000000 -0.162764
v 0.159968 0.000000 -0.162764
v 0.159968 0.000000 0.162764
v -0.078661 0.038257 0.075537
v -0.078661 0.038257 -0.075537
v 0.073069 0.038257 -0.075537
v 0.073069 0.038257 0.075537
v -0.165560 -0.325528 -0.162764
v -0.165560 0.000000 0.000000
v 0.159968 0.000000 0.000000
v -0.120190 0.000000 0.000000
v 0.114598 0.000000 0.000000
v -0.120190 0.038257 0.000000
v 0.114598 0.038257 0.000000
v -0.002796 0.000000 -0.162764
v 0.159968 -0.325528 0.162764
v -0.002796 0.000000 0.162764
v -0.002796 0.000000 -0.117394
v -0.002796 0.000000 0.117394
v -0.002796 0.038257 -0.117394
v -0.002796 0.038257 0.117394
v -0.002796 -0.325528 0.000000
v -0.165560 -0.139259 -0.162764
v -0.165560 -0.186269 -0.162764
v 0.159968 -0.139259 -0.162764
v 0.159968 -0.139259 0.162764
v 0.159968 -0.186269 0.162764
v -0.165560 -0.139259 0.162764
v -0.165560 -0.186269 0.162764
v 0.159968 -0.186269 -0.162764
v -0.152447 -0.186269 0.149651
v -0.152447 -0.139259 0.149651
v -0.152447 -0.139259 -0.149651
v -0.152447 -0.186269 -0.149651
v 0.146855 -0.139259 -0.149651
v 0.146855 -0.186269 -0.149651
v 0.146855 -0.139259 0.149651
v 0.146855 -0.186269 0.149651
v 0.141423 -0.139259 0.000000
v 0.141423 -0.186269 0.000000
v -0.147015 -0.139259 0.000000
v -0.147015 -0.186269 0.000000
v -0.002796 -0.139259 0.144219
v -0.002796 -0.186269 0.144219
v -0.002796 -0.139259 -0.144219
v -0.002796 -0.186269 -0.144219
vn -1.0000 -0.0000 -0.0000
vn -0.0000 -1.0000 -0.0000
vn 1.0000 -0.0000 -0.0000
vn -0.0000 -0.0000 1.0000
vn -0.0000 -0.0000 -1.0000
vn -0.0000 1.0000 -0.0000
vn 0.8763 -0.0000 -0.4818
vn -0.8763 -0.0000 0.4818
vn 0.4831 -0.0000 0.8756
vn -0.4831 -0.0000 -0.8756
vn -0.8763 -0.0000 -0.4818
vn 0.8763 -0.0000 0.4818
vn 0.4831 -0.0000 -0.8756
vn -0.4831 -0.0000 0.8756
vn 0.0363 -0.0000 -0.9993
vn -0.0363 -0.0000 0.9993
vn -0.9993 -0.0000 -0.0363
vn 0.9993 -0.0000 0.0363
vn 0.0363 -0.0000 0.9993
vn 0.9993 -0.0000 -0.0363
vn -0.0363 -0.0000 -0.9993
vn -0.9993 -0.0000 0.0363
vt 0.548156 0.220483
vt 0.555925 0.288369
vt 0.517991 0.250081
vt 0.343318 0.261991
vt 0.332964 0.178614
vt 0.416340 0.168260
vt 0.322610 0.095238
vt 0.353848 0.055140
vt 0.312079 0.302088
vt 0.249587 0.188968
vt 0.282512 0.063999
vt 0.383415 0.293229
vt 0.390022 0.283766
vt 0.390322 0.292343
vt 0.344707 0.345797
vt 0.585544 0.107319
vt 0.579482 0.102725
vt 0.622248 0.026607
vt 0.546178 0.070399
vt 0.551845 0.075391
vt 0.501141 0.151189
vt 0.405852 0.310989
vt 0.480754 0.292707
vt 0.448129 0.341365
vt 0.519477 0.428965
vt 0.498109 0.367528
vt 0.539287 0.392054
vt 0.504973 0.354810
vt 0.500464 0.329652
vt 0.511115 0.345438
vt 0.564178 0.352678
vt 0.591752 0.316720
vt 0.622248 0.338962
vt 0.520719 0.289037
vt 0.487245 0.332687
vt 0.530820 0.357206
vt 0.557691 0.320296
vt 0.547104 0.321138
vt 0.528913 0.345652
vt 0.539261 0.305949
vt 0.546720 0.298738
vt 0.544912 0.337669
vt 0.530813 0.357175
vt 0.492656 0.301823
vt 0.520902 0.301038
vt 0.502668 0.310185
vt 0.504959 0.354836
vt 0.546738 0.298717
vt 0.427756 0.382009
vt 0.617757 0.287590
vt 0.557663 0.320300
vt 0.553013 0.344635
vt 0.571352 0.412926
vt 0.517583 0.164691
vt 0.472268 0.226722
vt 0.471968 0.218144
vt 0.478875 0.217258
vt 0.456437 0.199499
vt 0.437341 0.259944
vt 0.209490 0.157730
vt 0.614733 0.021075
vt 0.424948 0.250544
vt 0.457271 0.206454
vt 0.448732 0.207830
vt 0.413558 0.302658
vt 0.361149 0.359299
vt 0.405019 0.304033
vt 0.218348 0.229066
vt 0.447579 0.128163
vt 0.282808 0.407763
vt 0.247557 0.489412
vt 0.240041 0.483881
vt 0.310445 0.435097
vt 0.276745 0.403169
vt 0.316111 0.440089
vt 0.552988 0.344617
vt 0.186121 0.554267
vt 0.191855 0.552894
s 0
usemtl Material_Hand_R
f 30/1/1 16/2/1 8/3/1
f 5/4/2 29/5/2 15/6/2
f 29/5/2 1/7/2 15/6/2
f 36/8/1 15/6/1 1/7/1
f 37/9/3 23/10/3 5/4/3
f 36/11/4 1/7/4 23/10/4
f 37/12/5 5/4/5 15/6/5
f 37/13/6 43/14/6 47/15/6
f 35/16/2 39/17/2 50/18/2
f 36/19/6 38/20/6 49/21/6
f 32/22/5 22/23/5 9/24/5
f 33/25/3 17/26/3 10/27/3
f 19/28/7 13/29/7 21/30/7
f 24/31/4 7/32/4 35/33/4
f 16/2/6 3/34/6 8/3/6
f 22/23/6 6/35/6 9/24/6
f 17/26/6 4/36/6 10/27/6
f 24/31/6 2/37/6 7/32/6
f 11/38/6 14/39/6 20/40/6
f 18/41/8 11/38/8 20/40/8
f 28/42/9 4/43/9 14/39/9
f 25/44/10 12/45/10 27/46/10
f 3/34/11 20/40/11 12/45/11
f 14/39/6 12/45/6 20/40/6
f 17/26/6 6/35/6 19/47/6
f 16/2/6 2/37/6 18/48/6
f 4/43/12 21/30/12 14/39/12
f 14/39/6 13/29/6 27/46/6
f 5/4/2 23/10/2 29/5/2
f 9/24/3 17/26/3 32/49/3
f 7/32/1 16/2/1 35/50/1
f 6/35/13 27/46/13 13/29/13
f 2/51/14 28/42/14 11/38/14
f 24/31/6 4/36/6 26/52/6
f 22/23/6 3/34/6 25/44/6
f 33/53/4 24/31/4 35/33/4
f 29/5/2 23/10/2 1/7/2
f 48/54/2 30/55/2 40/56/2
f 8/3/5 22/23/5 30/57/5
f 31/58/5 37/12/5 15/6/5
f 30/57/2 52/59/2 40/56/2
f 34/60/4 36/11/4 23/10/4
f 36/19/6 51/61/6 38/20/6
f 53/62/6 31/58/6 41/63/6
f 31/64/6 49/21/6 41/63/6
f 32/65/2 46/66/2 42/67/2
f 37/9/3 34/68/3 23/10/3
f 52/59/2 32/22/2 42/67/2
f 36/8/1 31/69/1 15/6/1
f 41/63/15 52/59/15 53/62/15
f 45/70/16 50/71/16 51/72/16
f 38/20/17 48/54/17 49/21/17
f 43/14/18 46/66/18 47/15/18
f 51/61/19 39/17/19 38/20/19
f 47/15/20 44/73/20 45/70/20
f 53/62/21 42/67/21 43/14/21
f 49/21/22 40/56/22 41/63/22
f 51/72/6 34/74/6 45/70/6
f 34/74/6 47/15/6 45/70/6
f 33/75/2 50/71/2 44/73/2
f 46/66/2 33/75/2 44/73/2
f 37/12/6 53/62/6 43/14/6
f 35/16/2 48/54/2 39/17/2
f 30/1/1 35/50/1 16/2/1
f 32/22/5 30/57/5 22/23/5
f 33/25/3 32/49/3 17/26/3
f 19/28/7 6/35/7 13/29/7
f 16/2/6 18/48/6 3/34/6
f 22/23/6 25/44/6 6/35/6
f 17/26/6 19/47/6 4/36/6
f 24/31/6 26/52/6 2/37/6
f 11/38/6 28/42/6 14/39/6
f 18/41/8 2/51/8 11/38/8
f 28/42/9 26/76/9 4/43/9
f 25/44/10 3/34/10 12/45/10
f 3/34/11 18/41/11 20/40/11
f 14/39/6 27/46/6 12/45/6
f 17/26/6 9/24/6 6/35/6
f 16/2/6 7/32/6 2/37/6
f 4/43/12 19/28/12 21/30/12
f 14/39/6 21/30/6 13/29/6
f 6/35/13 25/44/13 27/46/13
f 2/51/14 26/76/14 28/42/14
f 24/31/6 10/27/6 4/36/6
f 22/23/6 8/3/6 3/34/6
f 33/53/4 10/27/4 24/31/4
f 48/54/2 35/16/2 30/55/2
f 53/62/6 37/12/6 31/58/6
f 31/64/6 36/19/6 49/21/6
f 52/59/2 30/57/2 32/22/2
f 41/63/15 40/56/15 52/59/15
f 45/70/16 44/73/16 50/71/16
f 38/20/17 39/17/17 48/54/17
f 43/14/18 42/67/18 46/66/18
f 51/61/19 50/18/19 39/17/19
f 47/15/20 46/66/20 44/73/20
f 53/62/21 52/59/21 42/67/21
f 49/21/22 48/54/22 40/56/22
f 51/72/6 36/77/6 34/74/6
f 34/74/6 37/13/6 47/15/6
f 33/75/2 35/78/2 50/71/2
f 46/66/2 32/65/2 33/75/2
