# Blender 4.5.3 LTS
# www.blender.org
mtllib Diamond.mtl
o Cube
v 0.000000 0.500000 -0.125000
v 0.000000 0.500000 0.125000
v -0.250000 0.000000 -0.125000
v -0.250000 -0.000000 0.125000
v 0.250000 0.000000 -0.125000
v 0.250000 -0.000000 0.125000
v 0.000000 -0.500000 -0.125000
v 0.000000 -0.500000 0.125000
vn -0.0000 -0.0000 -1.0000
vn -0.8944 -0.4472 -0.0000
vn 0.8944 -0.4472 -0.0000
vn -0.0000 -0.0000 1.0000
vn -0.8944 0.4472 -0.0000
vn 0.8944 0.4472 -0.0000
vt 0.875000 0.500000
vt 0.625000 0.750000
vt 0.625000 0.500000
vt 0.375000 0.750000
vt 0.625000 1.000000
vt 0.375000 1.000000
vt 0.625000 0.000000
vt 0.375000 0.250000
vt 0.375000 0.000000
vt 0.125000 0.500000
vt 0.125000 0.750000
vt 0.375000 0.500000
vt 0.625000 0.250000
vt 0.875000 0.750000
s 1
usemtl マテリアル.001
f 5/1/1 3/2/1 1/3/1
f 4/4/2 7/5/2 8/6/2
f 7/7/3 6/8/3 8/9/3
f 6/10/4 4/4/4 8/11/4
f 2/12/5 3/2/5 4/4/5
f 5/13/6 2/12/6 6/8/6
f 5/1/1 7/14/1 3/2/1
f 4/4/2 3/2/2 7/5/2
f 7/7/3 5/13/3 6/8/3
f 6/10/4 2/12/4 4/4/4
f 2/12/5 1/3/5 3/2/5
f 5/13/6 1/3/6 2/12/6
