# Blender 4.4.1
# www.blender.org
mtllib Player_Leg_R.mtl
o P_Leg_R
v -0.163174 -0.349929 0.331189
v -0.083541 -0.024401 -0.081727
v 0.162354 -0.024401 0.331189
v 0.082721 -0.024401 -0.081727
v -0.083541 -0.024401 0.085949
v 0.162354 -0.349929 -0.157103
v 0.082721 -0.024401 0.085949
v -0.163174 -0.024401 0.081718
v -0.163174 -0.024401 -0.157103
v 0.162354 -0.024401 -0.157103
v -0.083541 0.040300 0.085949
v -0.083541 0.040300 -0.081727
v 0.082721 0.040300 -0.081727
v 0.082721 0.040300 0.085949
v 0.162354 -0.024401 0.081718
v -0.141916 -0.024401 0.002111
v 0.141096 -0.024401 0.002111
v -0.141916 0.040300 0.002111
v 0.141096 0.040300 0.002111
v -0.163174 -0.349929 -0.157103
v -0.000410 -0.024401 -0.157103
v 0.162354 -0.349929 0.331189
v -0.163174 -0.024401 0.331189
v -0.000410 -0.024401 -0.125216
v -0.000410 -0.024401 0.129438
v -0.000410 0.040300 -0.125216
v -0.000410 0.040300 0.129438
v -0.000410 -0.349929 0.081718
vn -0.0000 -0.0000 1.0000
vn -0.0000 -1.0000 -0.0000
vn -0.0000 1.0000 -0.0000
vn -1.0000 -0.0000 -0.0000
vn 1.0000 -0.0000 -0.0000
vn 0.8207 -0.0000 -0.5714
vn -0.0000 -0.0000 -1.0000
vn -0.8207 -0.0000 0.5714
vn 0.4635 -0.0000 0.8861
vn -0.4635 -0.0000 -0.8861
vn -0.8207 -0.0000 -0.5714
vn 0.8207 -0.0000 0.5714
vn 0.4635 -0.0000 -0.8861
vn -0.4635 -0.0000 0.8861
vt 0.787617 0.695351
vt 0.681531 0.690748
vt 0.686135 0.584662
vt 0.676928 0.905686
vt 0.568075 0.905686
vt 0.623688 0.851260
vt 0.835323 0.811910
vt 0.875324 0.811897
vt 0.843031 0.850688
vt 0.818174 0.816247
vt 0.783013 0.801437
vt 0.818007 0.885725
vt 0.783317 0.900864
vt 0.793871 0.877651
vt 0.835807 0.829818
vt 0.676928 0.796833
vt 0.807732 0.864486
vt 0.800766 0.851198
vt 0.817613 0.870443
vt 0.836018 0.871638
vt 0.835696 0.889894
vt 0.785265 0.749551
vt 0.794573 0.535066
vt 0.792221 0.589266
vt 0.818002 0.885697
vt 0.776500 0.850917
vt 0.793512 0.824490
vt 0.823878 0.837404
vt 0.814470 0.830299
vt 0.818170 0.816275
vt 0.843004 0.850688
vt 0.825118 0.862612
vt 0.828722 0.849884
vt 0.783147 0.850880
vt 0.806032 0.837098
vt 0.835997 0.871622
vt 0.796825 0.483180
vt 0.690739 0.478576
vt 0.835785 0.829834
vt 0.875897 0.889308
vt 0.568075 0.796833
s 0
usemtl Material_Leg_R
f 23/1/1 1/2/1 22/3/1
f 6/4/2 22/5/2 28/6/2
f 8/7/3 23/8/3 25/9/3
f 16/10/3 9/11/3 8/7/3
f 17/12/3 10/13/3 4/14/3
f 16/10/3 8/7/3 5/15/3
f 20/16/2 6/4/2 28/6/2
f 13/17/3 26/18/3 19/19/3
f 7/20/3 25/9/3 15/21/3
f 8/22/4 9/11/4 20/16/4
f 22/3/5 15/23/5 3/24/5
f 17/25/6 13/17/6 19/19/6
f 6/4/7 21/26/7 10/13/7
f 1/2/4 8/22/4 20/16/4
f 21/26/3 4/14/3 10/13/3
f 16/10/3 2/27/3 9/11/3
f 11/28/3 26/18/3 18/29/3
f 17/12/3 7/20/3 15/21/3
f 5/15/3 8/7/3 25/9/3
f 16/30/8 11/28/8 18/29/8
f 25/31/9 14/32/9 27/33/9
f 24/34/10 12/35/10 26/18/10
f 2/27/11 18/29/11 12/35/11
f 7/36/12 19/19/12 14/32/12
f 12/35/3 18/29/3 26/18/3
f 17/12/3 15/21/3 10/13/3
f 10/37/5 15/23/5 6/38/5
f 13/17/13 24/34/13 26/18/13
f 5/39/14 27/33/14 11/28/14
f 14/32/3 26/18/3 27/33/3
f 21/26/3 2/27/3 24/34/3
f 3/40/3 25/9/3 23/8/3
f 1/41/2 28/6/2 22/5/2
f 3/24/1 23/1/1 22/3/1
f 9/11/7 21/26/7 20/16/7
f 22/3/5 6/38/5 15/23/5
f 17/25/6 4/14/6 13/17/6
f 6/4/7 20/16/7 21/26/7
f 1/2/4 23/1/4 8/22/4
f 21/26/3 24/34/3 4/14/3
f 11/28/3 27/33/3 26/18/3
f 16/30/8 5/39/8 11/28/8
f 25/31/9 7/36/9 14/32/9
f 24/34/10 2/27/10 12/35/10
f 2/27/11 16/30/11 18/29/11
f 7/36/12 17/25/12 19/19/12
f 13/17/13 4/14/13 24/34/13
f 5/39/14 25/31/14 27/33/14
f 14/32/3 19/19/3 26/18/3
f 21/26/3 9/11/3 2/27/3
f 3/40/3 15/21/3 25/9/3
f 1/41/2 20/16/2 28/6/2
