# Blender 4.4.1
# www.blender.org
mtllib Enemy02.mtl
o 円柱
v 0.000000 -0.200000 -0.683933
v 0.000000 0.200000 -1.000000
v 0.483614 -0.200000 -0.483614
v 0.707107 0.200000 -0.707107
v 0.683933 -0.200000 0.000000
v 1.000000 0.200000 0.000000
v 0.483614 -0.200000 0.483614
v 0.707107 0.200000 0.707107
v 0.000000 -0.200000 0.683933
v 0.000000 0.200000 1.000000
v -0.483614 -0.200000 0.483614
v -0.707107 0.200000 0.707107
v -0.683933 -0.200000 0.000000
v -1.000000 0.200000 0.000000
v -0.483614 -0.200000 -0.483614
v -0.707107 0.200000 -0.707107
v 0.000000 -0.200000 -1.000000
v 0.707107 -0.200000 -0.707107
v 1.000000 -0.200000 0.000000
v 0.707107 -0.200000 0.707107
v 0.000000 -0.200000 1.000000
v -0.707107 -0.200000 0.707107
v -1.000000 -0.200000 0.000000
v -0.707107 -0.200000 -0.707107
v 0.000000 -0.287506 -0.683933
v 0.483614 -0.287506 -0.483614
v 0.683933 -0.287506 0.000000
v 0.483614 -0.287506 0.483614
v 0.000000 -0.287506 0.683933
v -0.483614 -0.287506 0.483614
v -0.683933 -0.287506 0.000000
v -0.483614 -0.287506 -0.483614
vn 0.3827 -0.0000 -0.9239
vn 0.9239 -0.0000 -0.3827
vn 0.9239 -0.0000 0.3827
vn 0.3827 -0.0000 0.9239
vn -0.3827 -0.0000 0.9239
vn -0.9239 -0.0000 0.3827
vn -0.0000 1.0000 -0.0000
vn -0.9239 -0.0000 -0.3827
vn -0.3827 -0.0000 -0.9239
vn -0.0000 -1.0000 -0.0000
vt 0.821625 0.434093
vt 0.723774 0.355259
vt 0.832994 0.377012
vt 0.712406 0.412340
vt 0.614555 0.333506
vt 0.603186 0.390587
vt 0.505335 0.311753
vt 0.493967 0.368834
vt 0.396116 0.290001
vt 0.393528 0.345315
vt 0.279161 0.306425
vt 0.291268 0.370736
vt 0.156108 0.329590
vt 0.235354 0.480332
vt 0.551008 0.476854
vt 0.168215 0.393901
vt 0.033056 0.352756
vt 0.930844 0.455846
vt 0.942213 0.398765
vt 0.537266 0.061332
vt 0.460080 0.058942
vt 0.462567 0.046454
vt 0.824033 0.331904
vt 0.749334 0.317027
vt 0.714813 0.310151
vt 0.640114 0.295274
vt 0.605594 0.288399
vt 0.530895 0.273521
vt 0.496374 0.266646
vt 0.421675 0.251768
vt 0.371367 0.247975
vt 0.291377 0.259208
vt 0.250876 0.263138
vt 0.166717 0.278982
vt 0.127824 0.286304
vt 0.043664 0.302147
vt 0.933252 0.353657
vt 0.858553 0.338780
vt 0.498861 0.254158
vt 0.381862 0.175941
vt 0.384253 0.098755
vt 0.369375 0.173454
vt 0.574689 0.214345
vt 0.577079 0.137159
vt 0.589566 0.139647
vt 0.453009 0.048353
vt 0.396740 0.101242
vt 0.389669 0.090653
vt 0.371274 0.183012
vt 0.424163 0.239281
vt 0.413574 0.246352
vt 0.505933 0.264747
vt 0.562201 0.211858
vt 0.569273 0.222447
vt 0.587667 0.130088
vt 0.534779 0.073819
vt 0.545367 0.066748
vt 0.506011 0.588964
vt 0.394920 0.636420
vt 0.282810 0.591423
vt 0.045163 0.417066
s 0
usemtl マテリアル
f 2/1/1 18/2/1 17/3/1
f 4/4/2 19/5/2 18/2/2
f 6/6/3 20/7/3 19/5/3
f 8/8/4 21/9/4 20/7/4
f 10/10/5 22/11/5 21/9/5
f 12/12/6 23/13/6 22/11/6
f 14/14/7 10/10/7 6/15/7
f 14/16/8 24/17/8 23/13/8
f 16/18/9 17/3/9 24/19/9
f 1/20/9 32/21/9 15/22/9
f 1/23/10 18/2/10 3/24/10
f 3/25/10 19/5/10 5/26/10
f 5/27/10 20/7/10 7/28/10
f 7/29/10 21/9/10 9/30/10
f 9/31/10 22/11/10 11/32/10
f 11/33/10 23/13/10 13/34/10
f 13/35/10 24/17/10 15/36/10
f 15/37/10 17/3/10 1/38/10
f 28/39/10 30/40/10 32/21/10
f 13/41/6 30/40/6 11/42/6
f 9/30/4 28/39/4 7/29/4
f 5/43/2 26/44/2 3/45/2
f 15/46/8 31/47/8 13/48/8
f 11/49/5 29/50/5 9/51/5
f 7/52/3 27/53/3 5/54/3
f 3/55/1 25/56/1 1/57/1
f 2/1/1 4/4/1 18/2/1
f 4/4/2 6/6/2 19/5/2
f 6/6/3 8/8/3 20/7/3
f 8/8/4 10/10/4 21/9/4
f 10/10/5 12/12/5 22/11/5
f 12/12/6 14/16/6 23/13/6
f 6/15/7 4/58/7 2/59/7
f 2/59/7 16/60/7 14/14/7
f 14/14/7 12/12/7 10/10/7
f 10/10/7 8/8/7 6/15/7
f 6/15/7 2/59/7 14/14/7
f 14/16/8 16/61/8 24/17/8
f 16/18/9 2/1/9 17/3/9
f 1/20/9 25/56/9 32/21/9
f 1/23/10 17/3/10 18/2/10
f 3/25/10 18/2/10 19/5/10
f 5/27/10 19/5/10 20/7/10
f 7/29/10 20/7/10 21/9/10
f 9/31/10 21/9/10 22/11/10
f 11/33/10 22/11/10 23/13/10
f 13/35/10 23/13/10 24/17/10
f 15/37/10 24/19/10 17/3/10
f 32/21/10 25/56/10 26/44/10
f 26/44/10 27/53/10 28/39/10
f 28/39/10 29/50/10 30/40/10
f 30/40/10 31/47/10 32/21/10
f 32/21/10 26/44/10 28/39/10
f 13/41/6 31/47/6 30/40/6
f 9/30/4 29/50/4 28/39/4
f 5/43/2 27/53/2 26/44/2
f 15/46/8 32/21/8 31/47/8
f 11/49/5 30/40/5 29/50/5
f 7/52/3 28/39/3 27/53/3
f 3/55/1 26/44/1 25/56/1
o 円錐.001
v 0.488512 -0.000000 -0.694466
v 0.315285 0.187500 -0.766219
v 0.142058 0.000000 -0.837972
v 0.315285 -0.187500 -0.766219
v 0.506627 -0.000000 -1.228159
vn 0.7295 0.6835 0.0248
vn -0.5334 0.6835 -0.4984
vn -0.5334 -0.6835 -0.4984
vn 0.7295 -0.6835 0.0248
vt 0.841513 0.483605
vt 0.804065 0.559114
vt 0.728556 0.521665
vt 0.766616 0.634622
vt 0.879573 0.596562
s 0
f 33/62/11 37/63/11 34/64/11
f 34/64/12 37/63/12 35/65/12
f 35/65/13 37/63/13 36/66/13
f 36/66/14 37/63/14 33/62/14
o 円錐.002
v 0.832919 0.000000 -0.147111
v 0.761165 0.187500 -0.320338
v 0.689412 0.000000 -0.493566
v 0.761165 -0.187500 -0.320338
v 1.223105 -0.000000 -0.511680
vn 0.4984 0.6835 0.5334
vn -0.0248 0.6835 -0.7295
vn -0.0248 -0.6835 -0.7295
vn 0.4984 -0.6835 0.5334
vt 0.841513 0.483605
vt 0.804065 0.559114
vt 0.728556 0.521665
vt 0.766616 0.634622
vt 0.879573 0.596562
s 0
f 38/67/15 42/68/15 39/69/15
f 39/69/16 42/68/16 40/70/16
f 40/70/17 42/68/17 41/71/17
f 41/71/18 42/68/18 38/67/18
o 円錐.003
v 0.689412 0.000000 0.483459
v 0.761165 0.187500 0.310232
v 0.832919 0.000000 0.137004
v 0.761165 -0.187500 0.310232
v 1.223105 -0.000000 0.501574
vn -0.0248 0.6835 0.7295
vn 0.4984 0.6835 -0.5334
vn 0.4984 -0.6835 -0.5334
vn -0.0248 -0.6835 0.7295
vt 0.841513 0.483605
vt 0.804065 0.559114
vt 0.728556 0.521665
vt 0.766616 0.634622
vt 0.879573 0.596562
s 0
f 43/72/19 47/73/19 44/74/19
f 44/74/20 47/73/20 45/75/20
f 45/75/21 47/73/21 46/76/21
f 46/76/22 47/73/22 43/72/22
o 円錐.004
v 0.142058 0.000000 0.827865
v 0.315285 0.187500 0.756112
v 0.488512 -0.000000 0.684359
v 0.315285 -0.187500 0.756112
v 0.506627 -0.000000 1.218052
vn -0.5334 0.6835 0.4984
vn 0.7295 0.6835 -0.0248
vn 0.7295 -0.6835 -0.0248
vn -0.5334 -0.6835 0.4984
vt 0.841513 0.483605
vt 0.804065 0.559114
vt 0.728556 0.521665
vt 0.766616 0.634622
vt 0.879573 0.596562
s 0
f 48/77/23 52/78/23 49/79/23
f 49/79/24 52/78/24 50/80/24
f 50/80/25 52/78/25 51/81/25
f 51/81/26 52/78/26 48/77/26
o 円錐.005
v -0.488512 0.000000 0.684359
v -0.315285 0.187500 0.756112
v -0.142058 -0.000000 0.827865
v -0.315285 -0.187500 0.756112
v -0.506627 0.000000 1.218052
vn -0.7295 0.6835 -0.0248
vn 0.5334 0.6835 0.4984
vn 0.5334 -0.6835 0.4984
vn -0.7295 -0.6835 -0.0248
vt 0.841513 0.483605
vt 0.804065 0.559114
vt 0.728556 0.521665
vt 0.766616 0.634622
vt 0.879573 0.596562
s 0
f 53/82/27 57/83/27 54/84/27
f 54/84/28 57/83/28 55/85/28
f 55/85/29 57/83/29 56/86/29
f 56/86/30 57/83/30 53/82/30
o 円錐.006
v -0.832919 -0.000000 0.137004
v -0.761165 0.187500 0.310232
v -0.689412 -0.000000 0.483459
v -0.761165 -0.187500 0.310232
v -1.223105 0.000000 0.501573
vn -0.4984 0.6835 -0.5334
vn 0.0248 0.6835 0.7295
vn 0.0248 -0.6835 0.7295
vn -0.4984 -0.6835 -0.5334
vt 0.841513 0.483605
vt 0.804065 0.559114
vt 0.728556 0.521665
vt 0.766616 0.634622
vt 0.879573 0.596562
s 0
f 58/87/31 62/88/31 59/89/31
f 59/89/32 62/88/32 60/90/32
f 60/90/33 62/88/33 61/91/33
f 61/91/34 62/88/34 58/87/34
o 円錐.008
v -0.689412 -0.000000 -0.493566
v -0.761165 0.187500 -0.320338
v -0.832919 -0.000000 -0.147111
v -0.761165 -0.187500 -0.320338
v -1.223105 0.000000 -0.511680
vn 0.0248 0.6835 -0.7295
vn -0.4984 0.6835 0.5334
vn -0.4984 -0.6835 0.5334
vn 0.0248 -0.6835 -0.7295
vt 0.841513 0.483605
vt 0.804065 0.559114
vt 0.728556 0.521665
vt 0.766616 0.634622
vt 0.879573 0.596562
s 0
f 63/92/35 67/93/35 64/94/35
f 64/94/36 67/93/36 65/95/36
f 65/95/37 67/93/37 66/96/37
f 66/96/38 67/93/38 63/92/38
o 円錐.009
v -0.142058 -0.000000 -0.837972
v -0.315285 0.187500 -0.766219
v -0.488512 0.000000 -0.694466
v -0.315285 -0.187500 -0.766219
v -0.506627 0.000000 -1.228159
vn 0.5334 0.6835 -0.4984
vn -0.7295 0.6835 0.0248
vn -0.7295 -0.6835 0.0248
vn 0.5334 -0.6835 -0.4984
vt 0.841513 0.483605
vt 0.804065 0.559114
vt 0.728556 0.521665
vt 0.766616 0.634622
vt 0.879573 0.596562
s 0
f 68/97/39 72/98/39 69/99/39
f 69/99/40 72/98/40 70/100/40
f 70/100/41 72/98/41 71/101/41
f 71/101/42 72/98/42 68/97/42
