# Blender 4.5.3 LTS
# www.blender.org
mtllib Mark.mtl
o 平面
v -0.500000 -0.000000 0.500000
v 0.500000 -0.000000 0.500000
v -0.500000 0.000000 -0.500000
v 0.500000 0.000000 -0.500000
vn -0.0000 1.0000 -0.0000
vt 1.000000 0.000000
vt 0.000000 1.000000
vt 0.000000 0.000000
vt 1.000000 1.000000
s 1
f 2/1/1 3/2/1 1/3/1
f 2/1/1 4/4/1 3/2/1
o 円錐
v -0.000000 1.450000 0.250000
v 0.195458 1.450000 0.155872
v 0.243732 1.450000 -0.055630
v 0.108471 1.450000 -0.225242
v -0.108471 1.450000 -0.225242
v -0.243732 1.450000 -0.055630
v -0.195458 1.450000 0.155872
v 0.000000 0.950000 0.000000
vn 0.3956 -0.4107 0.8215
vn 0.8889 -0.4107 0.2029
vn 0.7128 -0.4107 -0.5685
vn -0.0000 -0.4107 -0.9118
vn -0.7128 -0.4107 -0.5685
vn -0.0000 1.0000 -0.0000
vn -0.8889 -0.4107 0.2029
vn -0.3956 -0.4107 0.8215
vt 0.250000 0.490000
vt 0.250000 0.250000
vt 0.437640 0.399638
vt 0.483983 0.196595
vt 0.354132 0.033767
vt 0.145868 0.033767
vt 0.016017 0.196595
vt 0.937640 0.399638
vt 0.854132 0.033767
vt 0.516017 0.196595
vt 0.062360 0.399638
vt 0.562360 0.399638
vt 0.750000 0.490000
vt 0.983983 0.196595
vt 0.645868 0.033767
s 0
f 5/5/2 12/6/2 6/7/2
f 6/7/3 12/6/3 7/8/3
f 7/8/4 12/6/4 8/9/4
f 8/9/5 12/6/5 9/10/5
f 9/10/6 12/6/6 10/11/6
f 6/12/7 8/13/7 10/14/7
f 10/11/8 12/6/8 11/15/8
f 11/15/9 12/6/9 5/5/9
f 11/16/7 5/17/7 6/12/7
f 6/12/7 7/18/7 8/13/7
f 8/13/7 9/19/7 10/14/7
f 10/14/7 11/16/7 6/12/7
