# Blender 4.4.1
# www.blender.org
mtllib Player_Body.mtl
o P_Body
v -0.111460 0.260422 0.117652
v -0.111460 0.260422 -0.117652
v 0.111460 0.260422 0.117652
v 0.111460 0.260422 -0.117652
v 0.260422 -0.260422 -0.260422
v -0.260422 -0.260422 -0.260422
v -0.111460 0.304724 -0.117652
v 0.111460 0.304724 0.117652
v 0.111460 0.304724 -0.117652
v 0.260422 0.260422 0.260422
v -0.260422 0.260422 -0.260422
v -0.172305 0.260422 0.000000
v 0.172305 0.260422 -0.000000
v -0.172305 0.304724 0.000000
v 0.172305 0.304724 -0.000000
v -0.260422 0.260422 0.260422
v -0.032307 -0.260422 0.067876
v 0.000000 0.260422 0.181003
v -0.000000 0.260422 -0.181003
v 0.000000 0.304724 0.181003
v -0.000000 0.304724 -0.181003
v -0.111460 0.304724 0.117652
v 0.260422 0.260422 -0.260422
v 0.139624 0.176367 0.224253
v 0.139624 -0.176367 0.224253
v -0.139624 0.176367 0.224253
v 0.260422 -0.260422 0.260422
v -0.260422 -0.260422 0.260422
v -0.139624 -0.176367 0.224253
v -0.000000 0.209048 -0.260422
v 0.172305 0.209048 0.260422
v 0.172305 -0.209048 0.260422
v -0.172305 0.209048 0.260422
v -0.172305 -0.209048 0.260422
vn -0.0000 -1.0000 -0.0000
vn -0.0000 -0.0000 1.0000
vn -0.0000 1.0000 -0.0000
vn 1.0000 -0.0000 -0.0000
vn 0.8882 -0.0000 -0.4594
vn -0.8882 -0.0000 0.4594
vn 0.4941 -0.0000 0.8694
vn -0.8882 -0.0000 -0.4594
vn 0.8882 -0.0000 0.4594
vn -0.4941 -0.0000 0.8694
vn 0.4941 -0.0000 -0.8694
vn -0.0000 -0.0000 -1.0000
vn -0.4941 -0.0000 -0.8694
vn -1.0000 -0.0000 -0.0000
vn -0.7420 -0.0000 0.6704
vn 0.7420 -0.0000 0.6704
vn -0.0000 0.7420 0.6704
vn -0.0000 -0.7420 0.6704
vt 0.828666 0.276035
vt 0.740338 0.274734
vt 0.790801 0.219790
vt 0.829967 0.100112
vt 0.815735 0.108203
vt 0.756456 0.107687
vt 0.741639 0.186406
vt 0.741639 0.098812
vt 0.784668 0.087112
vt 0.759100 0.056598
vt 0.747225 0.019189
vt 0.767430 0.039344
vt 0.829967 0.187706
vt 0.764876 0.077079
vt 0.812230 0.055865
vt 0.823548 0.017169
vt 0.805475 0.077182
vt 0.784960 0.030668
vt 0.803020 0.038376
vt 0.654044 0.186406
vt 0.772036 0.044478
vt 0.799007 0.071413
vt 0.765274 0.057692
vt 0.759121 0.056600
vt 0.812207 0.055867
vt 0.805312 0.055928
vt 0.770640 0.072500
vt 0.785018 0.079888
vt 0.803003 0.038395
vt 0.798011 0.043318
vt 0.784794 0.037780
vt 0.767446 0.039359
vt 0.755870 0.178315
vt 0.815150 0.178831
vt 0.827366 0.364363
vt 0.739038 0.363062
vt 0.783330 0.355000
vt 0.784961 0.030693
vt 0.917561 0.100112
vt 0.917561 0.187706
vt 0.654044 0.098812
vt 0.808084 0.116360
vt 0.763522 0.170158
vt 0.764493 0.115317
vt 0.807112 0.171201
s 0
usemtl Material_Body
f 6/1/1 5/2/1 17/3/1
f 16/4/2 33/5/2 31/6/2
f 17/3/1 5/2/1 27/7/1
f 10/8/3 18/9/3 16/4/3
f 13/10/3 23/11/3 4/12/3
f 28/13/1 6/1/1 17/3/1
f 10/8/3 13/10/3 3/14/3
f 16/4/3 12/15/3 11/16/3
f 16/4/3 18/9/3 1/17/3
f 19/18/3 11/16/3 2/19/3
f 10/8/4 27/7/4 5/20/4
f 19/18/3 4/12/3 23/11/3
f 10/8/3 3/14/3 18/9/3
f 9/21/3 22/22/3 15/23/3
f 12/15/3 2/19/3 11/16/3
f 13/10/3 10/8/3 23/11/3
f 13/24/5 9/21/5 15/23/5
f 12/25/6 22/22/6 14/26/6
f 18/9/7 8/27/7 20/28/7
f 2/29/8 14/26/8 7/30/8
f 3/14/9 15/23/9 8/27/9
f 22/22/3 8/27/3 15/23/3
f 22/22/10 18/9/10 20/28/10
f 16/4/3 1/17/3 12/15/3
f 7/30/3 22/22/3 21/31/3
f 4/32/11 21/31/11 9/21/11
f 28/13/2 32/33/2 34/34/2
f 28/13/1 17/3/1 27/7/1
f 10/8/2 16/4/2 31/6/2
f 11/35/12 23/36/12 30/37/12
f 19/18/3 23/11/3 11/16/3
f 19/38/13 7/30/13 21/31/13
f 11/35/12 30/37/12 6/1/12
f 28/13/14 11/39/14 6/40/14
f 23/41/4 10/8/4 5/20/4
f 27/7/2 31/6/2 32/33/2
f 5/2/12 30/37/12 23/36/12
f 34/34/2 16/4/2 28/13/2
f 26/42/2 25/43/2 24/44/2
f 24/44/15 32/33/15 31/6/15
f 29/45/16 33/5/16 34/34/16
f 32/33/17 29/45/17 34/34/17
f 33/5/18 24/44/18 31/6/18
f 9/21/3 21/31/3 22/22/3
f 13/24/5 4/32/5 9/21/5
f 12/25/6 1/17/6 22/22/6
f 18/9/7 3/14/7 8/27/7
f 2/29/8 12/25/8 14/26/8
f 3/14/9 13/24/9 15/23/9
f 22/22/3 20/28/3 8/27/3
f 22/22/10 1/17/10 18/9/10
f 7/30/3 14/26/3 22/22/3
f 4/32/11 19/38/11 21/31/11
f 28/13/2 27/7/2 32/33/2
f 19/38/13 2/29/13 7/30/13
f 28/13/14 16/4/14 11/39/14
f 27/7/2 10/8/2 31/6/2
f 5/2/12 6/1/12 30/37/12
f 34/34/2 33/5/2 16/4/2
f 26/42/2 29/45/2 25/43/2
f 24/44/15 25/43/15 32/33/15
f 29/45/16 26/42/16 33/5/16
f 32/33/17 25/43/17 29/45/17
f 33/5/18 26/42/18 24/44/18
